<?xml version="1.0" encoding="UTF-8"?>
<svg id="Layer_1" data-name="Layer 1" xmlns="http://www.w3.org/2000/svg" viewBox="0 0 16 16">
  <defs>
    <style>
      .cls-1 {
        fill: #ea1218;
        stroke-width: 0px;
      }
    </style>
  </defs>
  <path id="Logo-Icon" class="cls-1" d="m13.41,9.4c0,.48-.28.9-.82,1-.94.17-2.92.26-4.59.26s-3.65-.12-4.59-.26c-.54-.1-.82-.52-.82-1v-3.13c0-.48.38-.93.82-1,.28-.05.92-.1,1.43-.1.19,0,.35.14.35.38v2.18c.96,0,1.81-.05,2.8-.05s1.83.05,2.8.05v-2.17c0-.24.17-.38.35-.38.52,0,1.15.05,1.43.1.45.07.82.52.82,1v3.12ZM8,0C3.58,0,0,3.58,0,8s3.58,8,8,8,8-3.58,8-8S12.42,0,8,0h0Z"/>
</svg>